# This file uses centimeters as units for non-parametric coordinates.

mtllib Barrel_Low.mtl
g default
v 0.934696 0.000000 -0.303701
v 0.795100 0.000000 -0.577674
v 0.303701 0.000000 -0.934695
v 0.000000 0.000000 -0.982797
v -0.303701 0.000000 -0.934695
v -0.577673 0.000000 -0.795099
v -0.934695 0.000000 -0.303701
v -0.934695 0.000000 0.303701
v -0.795099 0.000000 0.577673
v -0.303701 0.000000 0.934695
v -0.000000 0.000000 0.982797
v 0.577673 0.000000 0.795099
v 0.934695 0.000000 0.303701
v 0.795100 2.323547 -0.577674
v 0.577674 2.323547 -0.795100
v 0.303701 2.323547 -0.934695
v 0.000000 2.323547 -0.982797
v -0.303701 2.323547 -0.934695
v -0.577673 2.323547 -0.795099
v -0.934695 2.323547 -0.303701
v -0.934695 2.323547 0.303701
v -0.795099 2.323547 0.577673
v -0.303701 2.323547 0.934695
v -0.000000 2.323547 0.982797
v 0.577673 2.323547 0.795099
v 0.795099 2.323547 0.577673
v 0.934695 2.323547 0.303701
v 0.934696 2.323547 -0.303701
v 0.577674 0.000000 -0.795100
vt 0.045321 0.028767
vt 0.061184 0.028767
vt 0.045321 0.562751
vt 0.061184 0.562751
vt 0.077048 0.028767
vt 0.077048 0.562751
vt 0.092911 0.028767
vt 0.092911 0.562751
vt 0.108774 0.028767
vt 0.108774 0.562751
vt 0.124637 0.028767
vt 0.124637 0.562751
vt 0.140501 0.028767
vt 0.140501 0.562751
vt 0.172228 0.562751
vt 0.172228 0.028767
vt 0.203954 0.562751
vt 0.203954 0.028767
vt 0.219818 0.028767
vt 0.219818 0.562751
vt 0.251544 0.562751
vt 0.251544 0.028767
vt 0.267408 0.028767
vt 0.267408 0.562751
vt 0.299135 0.562751
vt 0.299135 0.028767
vt 0.314998 0.562751
vt 0.330861 0.028767
vt 0.330861 0.562751
vt 0.362588 0.562751
vt 0.362588 0.028767
vt 0.907835 0.143935
vt 0.930029 0.187492
vt 0.873268 0.109367
vt 0.829710 0.087173
vt 0.781426 0.079526
vt 0.733142 0.087173
vt 0.689585 0.109367
vt 0.632824 0.187492
vt 0.632824 0.284060
vt 0.655017 0.327618
vt 0.733142 0.384379
vt 0.781426 0.392026
vt 0.873268 0.362185
vt 0.930029 0.284060
vt 0.907835 0.327998
vt 0.873268 0.362565
vt 0.829710 0.384759
vt 0.781426 0.392406
vt 0.733142 0.384759
vt 0.689585 0.362565
vt 0.632824 0.284440
vt 0.632824 0.187872
vt 0.655017 0.144315
vt 0.733142 0.087554
vt 0.781426 0.079906
vt 0.873268 0.109747
vt 0.907835 0.144315
vt 0.930029 0.187872
vt 0.930029 0.284440
vn 0.987688 0.000000 -0.156434
vn 0.809017 0.000000 -0.587785
vn 0.987688 0.000000 -0.156434
vn 0.809017 0.000000 -0.587785
vn 0.587785 0.000000 -0.809017
vn 0.587785 0.000000 -0.809017
vn 0.309017 0.000000 -0.951057
vn 0.309017 0.000000 -0.951056
vn -0.000000 0.000000 -1.000000
vn 0.000000 0.000000 -1.000000
vn -0.309017 0.000000 -0.951056
vn -0.309017 0.000000 -0.951056
vn -0.707107 0.000000 -0.707107
vn -0.707107 0.000000 -0.707107
vn -0.951056 0.000000 -0.309017
vn -0.951056 0.000000 -0.309017
vn -0.987688 0.000000 0.156435
vn -0.987688 0.000000 0.156435
vn -0.707107 0.000000 0.707107
vn -0.707107 0.000000 0.707107
vn -0.453990 0.000000 0.891007
vn -0.453990 0.000000 0.891007
vn 0.156435 0.000000 0.987688
vn 0.156434 0.000000 0.987688
vn 0.453991 0.000000 0.891006
vn 0.577997 -0.010050 0.815977
vn 0.809012 -0.003684 0.587781
vn 0.954651 -0.010050 0.297558
vn 0.987688 0.000000 0.156435
vn 0.000000 -1.000000 0.000000
vn 0.000000 -1.000000 0.000000
vn 0.000000 -1.000000 0.000000
vn 0.000000 -1.000000 0.000000
vn 0.000000 -1.000000 0.000000
vn 0.000000 -1.000000 0.000000
vn 0.000000 -1.000000 0.000000
vn 0.000000 -1.000000 0.000000
vn 0.000000 -1.000000 0.000000
vn 0.000000 -1.000000 0.000000
vn 0.000000 -1.000000 0.000000
vn 0.000000 -1.000000 0.000000
vn 0.000000 -1.000000 0.000000
vn 0.000000 -1.000000 0.000000
vn 0.000000 1.000000 -0.000000
vn 0.000000 1.000000 0.000000
vn 0.000000 1.000000 -0.000000
vn 0.000000 1.000000 0.000000
vn 0.000000 1.000000 0.000000
vn 0.000000 1.000000 0.000000
vn 0.000000 1.000000 0.000000
vn 0.000000 1.000000 0.000000
vn 0.000000 1.000000 0.000000
vn 0.000000 1.000000 0.000000
vn 0.000000 1.000000 0.000000
vn 0.000000 1.000000 0.000002
vn 0.000000 1.000000 0.000002
vn 0.000000 1.000000 0.000000
vn 0.000000 1.000000 -0.000001
s 1
g polySurface1 pCylinder9
usemtl initialShadingGroup
f 1/1/1 2/2/2 28/3/3
f 28/3/3 2/2/2 14/4/4
f 2/2/2 29/5/5 14/4/4
f 14/4/4 29/5/5 15/6/6
f 29/5/5 3/7/7 15/6/6
f 15/6/6 3/7/7 16/8/8
f 3/7/7 4/9/9 16/8/8
f 16/8/8 4/9/9 17/10/10
f 4/9/9 5/11/11 17/10/10
f 17/10/10 5/11/11 18/12/12
f 5/11/11 6/13/13 18/12/12
f 18/12/12 6/13/13 19/14/14
f 19/14/14 6/13/13 20/15/15
f 6/13/13 7/16/16 20/15/15
f 20/15/15 7/16/16 21/17/17
f 7/16/16 8/18/18 21/17/17
f 8/18/18 9/19/19 21/17/17
f 21/17/17 9/19/19 22/20/20
f 22/20/20 9/19/19 23/21/21
f 9/19/19 10/22/22 23/21/21
f 10/22/22 11/23/23 23/21/21
f 23/21/21 11/23/23 24/24/24
f 24/24/24 11/23/23 25/25/25
f 11/23/23 12/26/26 25/25/25
f 25/25/25 12/26/26 26/27/27
f 12/26/26 13/28/28 26/27/27
f 26/27/27 13/28/28 27/29/29
f 27/29/29 13/28/28 28/30/3
f 13/28/28 1/31/1 28/30/3
s 2
f 2/32/30 1/33/31 29/34/32
f 4/36/33 3/35/34 29/34/32
f 5/37/35 4/36/33 29/34/32
f 6/38/36 5/37/35 29/34/32
f 7/39/37 6/38/36 29/34/32
f 8/40/38 7/39/37 29/34/32
f 9/41/39 8/40/38 29/34/32
f 10/42/40 9/41/39 29/34/32
f 11/43/41 10/42/40 29/34/32
f 12/44/42 11/43/41 29/34/32
f 13/45/43 12/44/42 29/34/32
f 1/33/31 13/45/43 29/34/32
s 4
f 28/60/44 14/46/45 23/55/46
f 14/46/45 15/47/47 23/55/46
f 15/47/47 16/48/48 23/55/46
f 16/48/48 17/49/49 23/55/46
f 17/49/49 18/50/50 23/55/46
f 18/50/50 19/51/51 23/55/46
f 19/51/51 20/52/52 23/55/46
f 20/52/52 21/53/53 23/55/46
f 21/53/53 22/54/54 23/55/46
f 24/56/55 25/57/56 23/55/46
f 25/57/56 26/58/57 23/55/46
f 26/58/57 27/59/58 23/55/46
f 27/59/58 28/60/44 23/55/46
