# This file uses centimeters as units for non-parametric coordinates.

mtllib Flag_Mid.mtl
g Flag_Mid:default1
v 0.049586 -1.054631 -0.036026
v 0.018940 -1.054631 -0.058292
v -0.018940 -1.054631 -0.058292
v -0.049586 -1.054631 -0.036026
v -0.061292 -1.054631 0.000000
v -0.049586 -1.054631 0.036026
v -0.018940 -1.054631 0.058292
v 0.018940 -1.054631 0.058292
v 0.049586 -1.054631 0.036026
v 0.061292 -1.054631 0.000000
v 0.049586 0.945369 -0.036026
v 0.018940 0.945369 -0.058292
v -0.018940 0.945369 -0.058292
v -0.049586 0.945369 -0.036026
v -0.061292 0.945369 0.000000
v -0.049586 0.945369 0.036026
v -0.018940 0.945369 0.058292
v 0.018940 0.945369 0.058292
v 0.049586 0.945369 0.036026
v 0.061292 0.945369 0.000000
v 0.000000 -1.054631 0.000000
v 0.000000 0.945369 0.000000
vt 0.225726 0.536806
vt 0.233877 0.503739
vt 0.198318 0.830782
vt 0.213828 0.830782
vt 0.232635 0.477496
vt 0.229339 0.830782
vt 0.224568 0.460648
vt 0.244850 0.830782
vt 0.212913 0.454842
vt 0.260360 0.830782
vt 0.201257 0.460648
vt 0.275871 0.830782
vt 0.193190 0.477496
vt 0.291381 0.830782
vt 0.191948 0.503739
vt 0.306892 0.830782
vt 0.200099 0.536806
vt 0.322402 0.830782
vt 0.219294 0.573461
vt 0.337913 0.830782
vt 0.457807 0.454842
vt 0.353423 0.830782
vt 0.190232 0.338331
vt 0.251508 0.362025
vt 0.323318 0.006944
vt 0.119906 0.364573
vt 0.074848 0.438183
vt 0.081663 0.535830
vt 0.148159 0.621866
vt 0.259351 0.661778
vt 0.382161 0.635536
vt 0.477134 0.545708
vt 0.512781 0.417211
vt 0.269427 1.077934
vt 0.200791 1.134695
vt 0.313828 0.694444
vt 0.113713 1.134695
vt 0.045077 1.077934
vt 0.024726 0.986092
vt 0.064056 0.894251
vt 0.151671 0.837490
vt 0.257728 0.837490
vt 0.345343 0.894251
vt 0.489057 0.700694
vn 0.587785 0.000000 -0.809017
vn 0.587785 0.000000 -0.809017
vn 0.587785 0.000000 -0.809017
vn 0.587785 0.000000 -0.809017
vn 0.587785 0.000000 -0.809017
vn 0.587785 0.000000 -0.809017
vn -0.000000 0.000000 -1.000000
vn -0.000000 0.000000 -1.000000
vn -0.000000 0.000000 -1.000000
vn -0.000000 0.000000 -1.000000
vn -0.000000 0.000000 -1.000000
vn -0.000000 0.000000 -1.000000
vn -0.587785 0.000000 -0.809017
vn -0.587785 0.000000 -0.809017
vn -0.587785 0.000000 -0.809017
vn -0.587785 0.000000 -0.809017
vn -0.587785 0.000000 -0.809017
vn -0.587785 0.000000 -0.809017
vn -0.951057 0.000000 -0.309017
vn -0.951057 0.000000 -0.309017
vn -0.951057 0.000000 -0.309017
vn -0.951057 0.000000 -0.309017
vn -0.951057 0.000000 -0.309017
vn -0.951057 0.000000 -0.309017
vn -0.951057 0.000000 0.309017
vn -0.951057 0.000000 0.309017
vn -0.951057 0.000000 0.309017
vn -0.951057 0.000000 0.309017
vn -0.951057 0.000000 0.309017
vn -0.951057 0.000000 0.309017
vn -0.587785 0.000000 0.809017
vn -0.587785 0.000000 0.809017
vn -0.587785 0.000000 0.809017
vn -0.587785 0.000000 0.809017
vn -0.587785 0.000000 0.809017
vn -0.587785 0.000000 0.809017
vn 0.000000 0.000000 1.000000
vn 0.000000 0.000000 1.000000
vn 0.000000 0.000000 1.000000
vn 0.000000 0.000000 1.000000
vn 0.000000 0.000000 1.000000
vn 0.000000 0.000000 1.000000
vn 0.587785 0.000000 0.809017
vn 0.587785 0.000000 0.809017
vn 0.587785 0.000000 0.809017
vn 0.587785 0.000000 0.809017
vn 0.587785 0.000000 0.809017
vn 0.587785 0.000000 0.809017
vn 0.951057 0.000000 0.309017
vn 0.951057 0.000000 0.309017
vn 0.951057 0.000000 0.309017
vn 0.951057 0.000000 0.309017
vn 0.951057 0.000000 0.309017
vn 0.951057 0.000000 0.309017
vn 0.951057 0.000000 -0.309017
vn 0.951057 0.000000 -0.309017
vn 0.951057 0.000000 -0.309017
vn 0.951057 0.000000 -0.309017
vn 0.951057 0.000000 -0.309017
vn 0.951057 0.000000 -0.309017
vn 0.000000 -1.000000 0.000000
vn 0.000000 -1.000000 0.000000
vn 0.000000 -1.000000 0.000000
vn 0.000000 -1.000000 0.000000
vn 0.000000 -1.000000 0.000000
vn 0.000000 -1.000000 0.000000
vn 0.000000 -1.000000 0.000000
vn 0.000000 -1.000000 0.000000
vn 0.000000 -1.000000 0.000000
vn 0.000000 -1.000000 0.000000
vn 0.000000 -1.000000 0.000000
vn 0.000000 -1.000000 0.000000
vn 0.000000 -1.000000 0.000000
vn 0.000000 -1.000000 0.000000
vn 0.000000 -1.000000 0.000000
vn 0.000000 -1.000000 0.000000
vn 0.000000 -1.000000 0.000000
vn 0.000000 -1.000000 0.000000
vn 0.000000 -1.000000 0.000000
vn 0.000000 -1.000000 0.000000
vn 0.000000 -1.000000 0.000000
vn 0.000000 -1.000000 0.000000
vn 0.000000 -1.000000 0.000000
vn 0.000000 -1.000000 0.000000
vn 0.000000 -1.000000 0.000000
vn 0.000000 -1.000000 0.000000
vn 0.000000 -1.000000 0.000000
vn 0.000000 -1.000000 0.000000
vn 0.000000 -1.000000 0.000000
vn 0.000000 -1.000000 0.000000
vn 0.000000 1.000000 0.000000
vn 0.000000 1.000000 -0.000002
vn 0.000000 1.000000 0.000000
vn 0.000000 1.000000 -0.000002
vn 0.000000 1.000000 -0.000002
vn 0.000000 1.000000 0.000000
vn 0.000000 1.000000 -0.000002
vn 0.000000 1.000000 0.000000
vn 0.000000 1.000000 0.000000
vn 0.000000 1.000000 0.000000
vn 0.000000 1.000000 0.000000
vn 0.000000 1.000000 0.000000
vn 0.000000 1.000000 0.000000
vn 0.000000 1.000000 0.000000
vn 0.000000 1.000000 0.000000
vn 0.000000 1.000000 0.000000
vn 0.000000 1.000000 0.000000
vn 0.000000 1.000000 0.000000
vn 0.000000 1.000000 0.000000
vn 0.000000 1.000000 0.000000
vn 0.000000 1.000000 0.000000
vn 0.000000 1.000000 0.000000
vn 0.000000 1.000000 0.000000
vn 0.000000 1.000000 0.000000
vn 0.000000 1.000000 0.000000
vn 0.000000 1.000000 0.000000
vn 0.000000 1.000000 0.000000
vn 0.000000 1.000000 0.000000
vn 0.000000 1.000000 0.000000
vn 0.000000 1.000000 0.000000
s off
g Flag_Mid:pCylinder2 Flag_Mid:polySurface2 polySurface1 Flag_Mid:polySurface1
usemtl Flag_Mid:initialShadingGroup
f 1/1/1 2/2/2 11/3/3
f 11/3/4 2/2/5 12/4/6
f 2/2/7 3/5/8 12/4/9
f 12/4/10 3/5/11 13/6/12
f 3/5/13 4/7/14 13/6/15
f 13/6/16 4/7/17 14/8/18
f 4/7/19 5/9/20 14/8/21
f 14/8/22 5/9/23 15/10/24
f 5/9/25 6/11/26 15/10/27
f 15/10/28 6/11/29 16/12/30
f 6/11/31 7/13/32 16/12/33
f 16/12/34 7/13/35 17/14/36
f 7/13/37 8/15/38 17/14/39
f 17/14/40 8/15/41 18/16/42
f 8/15/43 9/17/44 18/16/45
f 18/16/46 9/17/47 19/18/48
f 9/17/49 10/19/50 19/18/51
f 19/18/52 10/19/53 20/20/54
f 10/19/55 1/21/56 20/20/57
f 20/20/58 1/21/59 11/22/60
f 2/23/61 1/24/62 21/25/63
f 3/26/64 2/23/65 21/25/66
f 4/27/67 3/26/68 21/25/69
f 5/28/70 4/27/71 21/25/72
f 6/29/73 5/28/74 21/25/75
f 7/30/76 6/29/77 21/25/78
f 8/31/79 7/30/80 21/25/81
f 9/32/82 8/31/83 21/25/84
f 10/33/85 9/32/86 21/25/87
f 1/24/88 10/33/89 21/25/90
f 11/34/91 12/35/92 22/36/93
f 12/35/94 13/37/95 22/36/96
f 13/37/97 14/38/98 22/36/99
f 14/38/100 15/39/101 22/36/102
f 15/39/103 16/40/104 22/36/105
f 16/40/106 17/41/107 22/36/108
f 17/41/109 18/42/110 22/36/111
f 18/42/112 19/43/113 22/36/114
f 19/43/115 20/44/116 22/36/117
f 20/44/118 11/34/119 22/36/120
g Flag_Mid:default1
v 0.022276 0.898915 -0.027933
v -0.007950 0.898915 -0.034831
v -0.032189 0.898915 -0.015501
v -0.032189 0.898915 0.015501
v -0.007950 0.898915 0.034831
v 0.022276 0.898915 0.027933
v 0.035727 0.898915 0.000000
v 0.040139 0.921763 -0.050333
v -0.014325 0.921763 -0.062764
v -0.058003 0.921763 -0.027933
v -0.058003 0.921763 0.027933
v -0.014325 0.921763 0.062764
v 0.040139 0.921763 0.050333
v 0.064378 0.921763 0.000000
v 0.050053 0.954780 -0.062764
v -0.017864 0.954780 -0.078265
v -0.072328 0.954780 -0.034831
v -0.072328 0.954780 0.034831
v -0.017864 0.954780 0.078265
v 0.050053 0.954780 0.062764
v 0.080278 0.954780 0.000000
v 0.050053 0.991426 -0.062764
v -0.017864 0.991426 -0.078265
v -0.072328 0.991426 -0.034831
v -0.072328 0.991426 0.034831
v -0.017864 0.991426 0.078265
v 0.050053 0.991426 0.062764
v 0.080278 0.991426 0.000000
v 0.040139 1.024443 -0.050333
v -0.014325 1.024443 -0.062764
v -0.058003 1.024443 -0.027933
v -0.058003 1.024443 0.027933
v -0.014325 1.024443 0.062764
v 0.040139 1.024443 0.050333
v 0.064378 1.024443 0.000000
v 0.022276 1.047291 -0.027933
v -0.007950 1.047291 -0.034831
v -0.032189 1.047291 -0.015501
v -0.032189 1.047291 0.015501
v -0.007950 1.047291 0.034831
v 0.022276 1.047291 0.027933
v 0.035727 1.047291 0.000000
v 0.000000 0.890760 0.000000
v 0.000000 1.055445 0.000000
vt 0.200810 0.613879
vt 0.229232 0.613879
vt 0.076062 0.657894
vt 0.104484 0.657894
vt 0.257654 0.613879
vt 0.132905 0.657894
vt 0.286076 0.613879
vt 0.161327 0.657894
vt 0.314498 0.613879
vt 0.189749 0.657894
vt 0.342920 0.613879
vt 0.218171 0.657894
vt 0.371341 0.613879
vt 0.246593 0.657894
vt 0.399763 0.613879
vt 0.275015 0.657894
vt 0.200810 0.686316
vt 0.229232 0.686316
vt 0.257654 0.686316
vt 0.286076 0.686316
vt 0.314498 0.686316
vt 0.342920 0.686316
vt 0.371341 0.686316
vt 0.399763 0.686316
vt 0.076062 0.730332
vt 0.104484 0.730332
vt 0.132905 0.730332
vt 0.161327 0.730332
vt 0.189749 0.730332
vt 0.218171 0.730332
vt 0.246593 0.730332
vt 0.275015 0.730332
vt 0.200810 0.758754
vt 0.229232 0.758754
vt 0.257654 0.758754
vt 0.286076 0.758754
vt 0.314498 0.758754
vt 0.342920 0.758754
vt 0.371341 0.758754
vt 0.399763 0.758754
vt 0.076062 0.802769
vt 0.104484 0.802769
vt 0.132905 0.802769
vt 0.161327 0.802769
vt 0.189749 0.802769
vt 0.218171 0.802769
vt 0.246593 0.802769
vt 0.275015 0.802769
vt 0.222818 0.523083
vt 0.251240 0.523083
vt 0.279662 0.523083
vt 0.308083 0.523083
vt 0.336505 0.523083
vt 0.364927 0.523083
vt 0.393349 0.523083
vt 0.113663 0.831191
vt 0.142085 0.831191
vt 0.170507 0.831191
vt 0.198929 0.831191
vt 0.227351 0.831191
vt 0.255772 0.831191
vt 0.284194 0.831191
vn 0.147485 -0.748807 -0.646170
vn 0.147485 -0.748806 -0.646171
vn 0.147485 -0.748806 -0.646171
vn 0.147485 -0.748806 -0.646171
vn 0.147485 -0.748806 -0.646171
vn 0.147485 -0.748806 -0.646172
vn -0.413242 -0.748806 -0.518190
vn -0.413243 -0.748807 -0.518188
vn -0.413243 -0.748807 -0.518188
vn -0.413243 -0.748807 -0.518188
vn -0.413243 -0.748807 -0.518188
vn -0.413243 -0.748807 -0.518187
vn -0.662790 -0.748806 0.000000
vn -0.662789 -0.748806 0.000000
vn -0.662790 -0.748806 0.000000
vn -0.662790 -0.748806 0.000000
vn -0.662789 -0.748806 0.000000
vn -0.662789 -0.748806 0.000000
vn -0.413242 -0.748805 0.518191
vn -0.413243 -0.748807 0.518188
vn -0.413243 -0.748807 0.518188
vn -0.413243 -0.748807 0.518188
vn -0.413243 -0.748807 0.518188
vn -0.413243 -0.748807 0.518187
vn 0.147484 -0.748805 0.646173
vn 0.147484 -0.748806 0.646172
vn 0.147484 -0.748806 0.646172
vn 0.147484 -0.748806 0.646172
vn 0.147484 -0.748806 0.646172
vn 0.147484 -0.748806 0.646172
vn 0.597152 -0.748805 0.287576
vn 0.597153 -0.748806 0.287572
vn 0.597153 -0.748806 0.287573
vn 0.597153 -0.748806 0.287573
vn 0.597153 -0.748806 0.287572
vn 0.597153 -0.748806 0.287571
vn 0.597153 -0.748807 -0.287570
vn 0.597153 -0.748806 -0.287574
vn 0.597153 -0.748806 -0.287573
vn 0.597153 -0.748806 -0.287573
vn 0.597153 -0.748806 -0.287574
vn 0.597153 -0.748805 -0.287575
vn 0.204133 -0.398030 -0.894372
vn 0.204134 -0.398031 -0.894372
vn 0.204134 -0.398030 -0.894372
vn 0.204134 -0.398030 -0.894372
vn 0.204134 -0.398031 -0.894372
vn 0.204134 -0.398032 -0.894371
vn -0.571969 -0.398030 -0.717233
vn -0.571972 -0.398032 -0.717229
vn -0.571971 -0.398031 -0.717231
vn -0.571971 -0.398031 -0.717231
vn -0.571972 -0.398032 -0.717229
vn -0.571973 -0.398033 -0.717228
vn -0.917372 -0.398032 0.000000
vn -0.917372 -0.398032 0.000000
vn -0.917372 -0.398032 0.000000
vn -0.917372 -0.398032 0.000000
vn -0.917372 -0.398032 0.000000
vn -0.917372 -0.398032 0.000000
vn -0.571969 -0.398030 0.717234
vn -0.571972 -0.398032 0.717229
vn -0.571971 -0.398031 0.717231
vn -0.571971 -0.398031 0.717231
vn -0.571972 -0.398032 0.717229
vn -0.571974 -0.398033 0.717228
vn 0.204134 -0.398031 0.894372
vn 0.204134 -0.398031 0.894372
vn 0.204134 -0.398031 0.894372
vn 0.204134 -0.398031 0.894372
vn 0.204134 -0.398031 0.894372
vn 0.204134 -0.398032 0.894371
vn 0.826522 -0.398031 0.398037
vn 0.826524 -0.398032 0.398031
vn 0.826523 -0.398032 0.398034
vn 0.826523 -0.398032 0.398034
vn 0.826524 -0.398032 0.398031
vn 0.826524 -0.398032 0.398030
vn 0.826522 -0.398031 -0.398035
vn 0.826523 -0.398032 -0.398033
vn 0.826523 -0.398032 -0.398034
vn 0.826523 -0.398032 -0.398034
vn 0.826523 -0.398032 -0.398033
vn 0.826524 -0.398032 -0.398032
vn 0.222521 0.000000 -0.974928
vn 0.222521 0.000000 -0.974928
vn 0.222521 0.000000 -0.974928
vn 0.222521 0.000000 -0.974928
vn 0.222521 0.000000 -0.974928
vn 0.222521 0.000000 -0.974928
vn -0.623489 0.000000 -0.781832
vn -0.623489 0.000000 -0.781832
vn -0.623489 0.000000 -0.781832
vn -0.623489 0.000000 -0.781832
vn -0.623489 0.000000 -0.781832
vn -0.623489 0.000000 -0.781832
vn -1.000000 0.000000 -0.000000
vn -1.000000 0.000000 -0.000000
vn -1.000000 0.000000 -0.000000
vn -1.000000 0.000000 -0.000000
vn -1.000000 0.000000 -0.000000
vn -1.000000 0.000000 -0.000000
vn -0.623489 0.000000 0.781832
vn -0.623489 0.000000 0.781832
vn -0.623489 0.000000 0.781832
vn -0.623489 0.000000 0.781832
vn -0.623489 0.000000 0.781832
vn -0.623489 0.000000 0.781832
vn 0.222521 0.000000 0.974928
vn 0.222521 0.000000 0.974928
vn 0.222521 0.000000 0.974928
vn 0.222521 0.000000 0.974928
vn 0.222521 0.000000 0.974928
vn 0.222521 0.000000 0.974928
vn 0.900969 0.000000 0.433883
vn 0.900968 0.000000 0.433885
vn 0.900969 0.000000 0.433884
vn 0.900969 0.000000 0.433884
vn 0.900968 0.000000 0.433885
vn 0.900968 0.000000 0.433885
vn 0.900969 0.000000 -0.433883
vn 0.900968 0.000000 -0.433885
vn 0.900969 0.000000 -0.433884
vn 0.900969 0.000000 -0.433884
vn 0.900968 0.000000 -0.433885
vn 0.900968 0.000000 -0.433886
vn 0.204138 0.398039 -0.894367
vn 0.204135 0.398033 -0.894371
vn 0.204137 0.398036 -0.894369
vn 0.204137 0.398036 -0.894369
vn 0.204135 0.398033 -0.894371
vn 0.204133 0.398028 -0.894373
vn -0.571975 0.398034 -0.717226
vn -0.571971 0.398031 -0.717231
vn -0.571973 0.398033 -0.717228
vn -0.571973 0.398033 -0.717228
vn -0.571971 0.398031 -0.717231
vn -0.571968 0.398029 -0.717235
vn -0.917372 0.398032 0.000000
vn -0.917372 0.398032 -0.000000
vn -0.917372 0.398032 -0.000000
vn -0.917372 0.398032 -0.000000
vn -0.917372 0.398032 -0.000000
vn -0.917372 0.398032 -0.000000
vn -0.571974 0.398033 0.717227
vn -0.571973 0.398032 0.717229
vn -0.571973 0.398033 0.717228
vn -0.571973 0.398033 0.717228
vn -0.571973 0.398032 0.717229
vn -0.571971 0.398031 0.717231
vn 0.204138 0.398038 0.894368
vn 0.204134 0.398031 0.894372
vn 0.204136 0.398035 0.894369
vn 0.204136 0.398035 0.894369
vn 0.204134 0.398031 0.894372
vn 0.204131 0.398026 0.894375
vn 0.826524 0.398032 0.398030
vn 0.826524 0.398032 0.398031
vn 0.826524 0.398032 0.398030
vn 0.826524 0.398032 0.398030
vn 0.826524 0.398032 0.398031
vn 0.826523 0.398032 0.398032
vn 0.826526 0.398033 -0.398027
vn 0.826524 0.398032 -0.398032
vn 0.826525 0.398032 -0.398029
vn 0.826525 0.398032 -0.398029
vn 0.826524 0.398032 -0.398032
vn 0.826522 0.398032 -0.398035
vn 0.147486 0.748812 -0.646165
vn 0.147485 0.748807 -0.646170
vn 0.147485 0.748808 -0.646169
vn 0.147485 0.748808 -0.646169
vn 0.147485 0.748807 -0.646170
vn 0.147483 0.748797 -0.646182
vn -0.413243 0.748807 -0.518188
vn -0.413242 0.748806 -0.518189
vn -0.413243 0.748806 -0.518189
vn -0.413243 0.748806 -0.518189
vn -0.413242 0.748806 -0.518189
vn -0.413242 0.748805 -0.518191
vn -0.662790 0.748806 0.000000
vn -0.662790 0.748806 0.000000
vn -0.662790 0.748806 0.000000
vn -0.662790 0.748806 0.000000
vn -0.662790 0.748806 0.000000
vn -0.662789 0.748806 0.000000
vn -0.413243 0.748807 0.518187
vn -0.413242 0.748806 0.518190
vn -0.413243 0.748806 0.518189
vn -0.413243 0.748806 0.518189
vn -0.413242 0.748806 0.518190
vn -0.413241 0.748802 0.518196
vn 0.147485 0.748808 0.646169
vn 0.147485 0.748807 0.646171
vn 0.147485 0.748807 0.646170
vn 0.147485 0.748807 0.646170
vn 0.147485 0.748807 0.646171
vn 0.147484 0.748804 0.646174
vn 0.597153 0.748805 0.287575
vn 0.597153 0.748806 0.287574
vn 0.597153 0.748806 0.287574
vn 0.597153 0.748806 0.287574
vn 0.597153 0.748806 0.287574
vn 0.597153 0.748806 0.287573
vn 0.597153 0.748806 -0.287571
vn 0.597153 0.748806 -0.287574
vn 0.597153 0.748806 -0.287573
vn 0.597153 0.748806 -0.287573
vn 0.597153 0.748806 -0.287574
vn 0.597152 0.748804 -0.287580
vn 0.054645 -0.969379 -0.239414
vn 0.054645 -0.969379 -0.239414
vn 0.054645 -0.969379 -0.239414
vn -0.153113 -0.969379 -0.191990
vn -0.153113 -0.969379 -0.191990
vn -0.153113 -0.969379 -0.191990
vn -0.245574 -0.969378 0.000000
vn -0.245574 -0.969378 0.000000
vn -0.245574 -0.969378 0.000000
vn -0.153113 -0.969379 0.191990
vn -0.153113 -0.969379 0.191990
vn -0.153113 -0.969379 0.191990
vn 0.054645 -0.969378 0.239415
vn 0.054645 -0.969378 0.239415
vn 0.054645 -0.969378 0.239415
vn 0.221255 -0.969378 0.106547
vn 0.221255 -0.969378 0.106547
vn 0.221255 -0.969378 0.106547
vn 0.221255 -0.969377 -0.106554
vn 0.221255 -0.969377 -0.106554
vn 0.221255 -0.969377 -0.106554
vn 0.054645 0.969377 -0.239422
vn 0.054645 0.969377 -0.239422
vn 0.054645 0.969377 -0.239422
vn -0.153111 0.969380 -0.191986
vn -0.153111 0.969380 -0.191986
vn -0.153111 0.969380 -0.191986
vn -0.245571 0.969379 0.000000
vn -0.245571 0.969379 0.000000
vn -0.245571 0.969379 0.000000
vn -0.153111 0.969380 0.191990
vn -0.153111 0.969380 0.191990
vn -0.153111 0.969380 0.191990
vn 0.054645 0.969379 0.239412
vn 0.054645 0.969379 0.239412
vn 0.054645 0.969379 0.239412
vn 0.221252 0.969378 0.106554
vn 0.221252 0.969378 0.106554
vn 0.221252 0.969378 0.106554
vn 0.221252 0.969379 -0.106547
vn 0.221252 0.969379 -0.106547
vn 0.221252 0.969379 -0.106547
s off
g Flag_Mid:pCylinder2 Flag_Mid:polySurface3 Flag_Mid:polySurface1 polySurface2
usemtl Flag_Mid:initialShadingGroup
f 23/45/121 24/46/122 30/47/123
f 30/47/124 24/46/125 31/48/126
f 24/46/127 25/49/128 31/48/129
f 31/48/130 25/49/131 32/50/132
f 25/49/133 26/51/134 32/50/135
f 32/50/136 26/51/137 33/52/138
f 26/51/139 27/53/140 33/52/141
f 33/52/142 27/53/143 34/54/144
f 27/53/145 28/55/146 34/54/147
f 34/54/148 28/55/149 35/56/150
f 28/55/151 29/57/152 35/56/153
f 35/56/154 29/57/155 36/58/156
f 29/57/157 23/59/158 36/58/159
f 36/58/160 23/59/161 30/60/162
f 30/47/163 31/48/164 37/61/165
f 37/61/166 31/48/167 38/62/168
f 31/48/169 32/50/170 38/62/171
f 38/62/172 32/50/173 39/63/174
f 32/50/175 33/52/176 39/63/177
f 39/63/178 33/52/179 40/64/180
f 33/52/181 34/54/182 40/64/183
f 40/64/184 34/54/185 41/65/186
f 34/54/187 35/56/188 41/65/189
f 41/65/190 35/56/191 42/66/192
f 35/56/193 36/58/194 42/66/195
f 42/66/196 36/58/197 43/67/198
f 36/58/199 30/60/200 43/67/201
f 43/67/202 30/60/203 37/68/204
f 37/61/205 38/62/206 44/69/207
f 44/69/208 38/62/209 45/70/210
f 38/62/211 39/63/212 45/70/213
f 45/70/214 39/63/215 46/71/216
f 39/63/217 40/64/218 46/71/219
f 46/71/220 40/64/221 47/72/222
f 40/64/223 41/65/224 47/72/225
f 47/72/226 41/65/227 48/73/228
f 41/65/229 42/66/230 48/73/231
f 48/73/232 42/66/233 49/74/234
f 42/66/235 43/67/236 49/74/237
f 49/74/238 43/67/239 50/75/240
f 43/67/241 37/68/242 50/75/243
f 50/75/244 37/68/245 44/76/246
f 44/69/247 45/70/248 51/77/249
f 51/77/250 45/70/251 52/78/252
f 45/70/253 46/71/254 52/78/255
f 52/78/256 46/71/257 53/79/258
f 46/71/259 47/72/260 53/79/261
f 53/79/262 47/72/263 54/80/264
f 47/72/265 48/73/266 54/80/267
f 54/80/268 48/73/269 55/81/270
f 48/73/271 49/74/272 55/81/273
f 55/81/274 49/74/275 56/82/276
f 49/74/277 50/75/278 56/82/279
f 56/82/280 50/75/281 57/83/282
f 50/75/283 44/76/284 57/83/285
f 57/83/286 44/76/287 51/84/288
f 51/77/289 52/78/290 58/85/291
f 58/85/292 52/78/293 59/86/294
f 52/78/295 53/79/296 59/86/297
f 59/86/298 53/79/299 60/87/300
f 53/79/301 54/80/302 60/87/303
f 60/87/304 54/80/305 61/88/306
f 54/80/307 55/81/308 61/88/309
f 61/88/310 55/81/311 62/89/312
f 55/81/313 56/82/314 62/89/315
f 62/89/316 56/82/317 63/90/318
f 56/82/319 57/83/320 63/90/321
f 63/90/322 57/83/323 64/91/324
f 57/83/325 51/84/326 64/91/327
f 64/91/328 51/84/329 58/92/330
f 24/46/331 23/45/332 65/93/333
f 25/49/334 24/46/335 65/94/336
f 26/51/337 25/49/338 65/95/339
f 27/53/340 26/51/341 65/96/342
f 28/55/343 27/53/344 65/97/345
f 29/57/346 28/55/347 65/98/348
f 23/59/349 29/57/350 65/99/351
f 58/85/352 59/86/353 66/100/354
f 59/86/355 60/87/356 66/101/357
f 60/87/358 61/88/359 66/102/360
f 61/88/361 62/89/362 66/103/363
f 62/89/364 63/90/365 66/104/366
f 63/90/367 64/91/368 66/105/369
f 64/91/370 58/92/371 66/106/372
g Flag_Mid:default1
v -0.011999 0.429217 -0.033024
v 0.011999 0.429217 -0.033024
v -0.011999 0.923816 -0.033024
v 0.011999 0.923816 -0.033024
v -0.011999 0.429217 -1.033024
v 0.011999 0.429217 -1.033024
vt 0.751004 0.360360
vt 0.820824 0.360360
vt 0.751004 0.430180
vt 0.820824 0.430180
vt 0.751004 0.569820
vt 0.820824 0.569820
vt 0.751004 0.639640
vt 0.820824 0.639640
vt 0.890643 0.360360
vt 0.681184 0.360360
vn 0.000000 0.000000 1.000000
vn 0.000000 0.000000 1.000000
vn 0.000000 0.000000 1.000000
vn 0.000000 0.000000 1.000000
vn 0.000000 0.000000 1.000000
vn 0.000000 0.000000 1.000000
vn 0.000000 -1.000000 0.000000
vn 0.000000 -1.000000 0.000000
vn 0.000000 -1.000000 0.000000
vn 0.000000 -1.000000 0.000000
vn 0.000000 -1.000000 0.000000
vn 0.000000 -1.000000 0.000000
vn 1.000000 0.000000 0.000000
vn 1.000000 0.000000 0.000000
vn 1.000000 0.000000 0.000000
vn -1.000000 0.000000 0.000000
vn -1.000000 0.000000 0.000000
vn -1.000000 0.000000 0.000000
vn 0.000000 0.896355 -0.443337
vn 0.000000 0.896355 -0.443336
vn 0.000000 0.896355 -0.443336
vn 0.000000 0.896355 -0.443336
vn 0.000000 0.896355 -0.443336
vn 0.000000 0.896355 -0.443336
s off
g Flag_Mid:pCylinder2 Flag_Mid:polySurface4 Flag_Mid:polySurface1 polySurface3
usemtl Flag_Mid:lambert2SG
f 67/107/373 68/108/374 69/109/375
f 69/109/376 68/108/377 70/110/378
f 71/111/379 72/112/380 67/113/381
f 67/113/382 72/112/383 68/114/384
f 68/108/385 72/115/386 70/110/387
f 71/116/388 67/107/389 69/109/390
f 70/110/391 72/112/392 69/109/393
f 69/109/394 72/112/395 71/116/396
