# This file uses centimeters as units for non-parametric coordinates.

mtllib Tree_Mid.mtl
g default
v 0.350964 0.000000 -0.329577
v 0.030231 0.000000 -0.480502
v -0.148777 0.000000 -0.457888
v -0.306889 0.000000 -0.370965
v -0.466326 0.000000 -0.119732
v -0.389503 0.000000 0.282990
v -0.090215 0.000000 0.472924
v 0.090215 0.000000 0.472924
v 0.257975 0.000000 0.406503
v 0.421899 0.000000 0.231941
v 0.477656 0.000000 -0.060342
v 0.350964 2.000000 -0.329577
v 0.030231 2.000000 -0.480502
v -0.148777 2.000000 -0.457888
v -0.306889 2.000000 -0.370965
v -0.466326 2.000000 -0.119732
v -0.466326 2.000000 0.119732
v -0.389503 2.000000 0.282990
v -0.090215 2.000000 0.472924
v 0.090215 2.000000 0.472924
v 0.257975 2.000000 0.406503
v 0.421899 2.000000 0.231941
v 0.477656 2.000000 -0.060342
v -0.466326 0.000000 0.119732
v 1.430163 1.648991 -0.367203
v 1.372863 1.648991 -0.543555
v 1.194555 1.648991 -0.867895
v 0.941189 1.648991 -1.137702
v 0.791176 1.648991 -1.246693
v 0.456279 1.648991 -1.404284
v 0.276678 1.648991 -1.450397
v 0.092713 1.648991 -1.473637
v -0.276678 1.648991 -1.450397
v -0.791176 1.648991 -1.246693
v -1.076359 1.648991 -1.010769
v -1.293911 1.648991 -0.711334
v -1.372862 1.648991 -0.543554
v -1.464908 1.648991 -0.185061
v -1.464908 1.648991 0.185061
v -1.430162 1.648991 0.367203
v -1.372862 1.648991 0.543555
v -1.076359 1.648991 1.010769
v -0.791175 1.648991 1.246693
v -0.628684 1.648991 1.336023
v -0.276678 1.648991 1.450397
v 0.092713 1.648991 1.473637
v 0.276678 1.648991 1.450396
v 0.791175 1.648991 1.246692
v 0.941189 1.648991 1.137701
v 1.194554 1.648991 0.867894
v 1.372861 1.648991 0.543554
v 1.430161 1.648991 0.367203
v 1.464908 1.648991 -0.185061
v 0.000000 4.815704 0.000000
v 1.224062 2.698450 -0.314286
v 1.107446 2.698450 -0.608824
v 0.805554 2.698450 -0.973748
v 0.538085 2.698450 -1.143489
v 0.390525 2.698450 -1.201912
v 0.079352 2.698450 -1.261272
v -0.236806 2.698450 -1.241380
v -0.538085 2.698450 -1.143489
v -0.805554 2.698450 -0.973748
v -0.921245 2.698450 -0.865107
v -1.107446 2.698450 -0.608823
v -1.175019 2.698450 -0.465223
v -1.253800 2.698450 -0.158392
v -1.253800 2.698450 0.158392
v -1.224061 2.698450 0.314286
v -1.107446 2.698450 0.608823
v -0.921245 2.698450 0.865107
v -0.805554 2.698450 0.973748
v -0.390525 2.698450 1.201912
v -0.236806 2.698450 1.241380
v -0.079352 2.698450 1.261271
v 0.390525 2.698450 1.201911
v 0.805554 2.698450 0.973747
v 0.921245 2.698450 0.865106
v 1.107445 2.698450 0.608823
v 1.224061 2.698450 0.314285
v 1.253800 2.698450 -0.158392
v 0.000000 5.865163 0.000000
vt 0.613901 0.108201
vt 0.509811 0.059220
vt 0.451716 0.066559
vt 0.400402 0.094769
vt 0.348659 0.176304
vt 0.373591 0.307003
vt 0.470722 0.368644
vt 0.529278 0.368644
vt 0.583723 0.347088
vt 0.636923 0.290435
vt 0.655018 0.195578
vt 0.036260 0.034512
vt 0.061260 0.034512
vt 0.091260 0.034512
vt 0.106259 0.034512
vt 0.121259 0.034512
vt 0.146259 0.034512
vt 0.166259 0.034512
vt 0.181259 0.034512
vt 0.211259 0.034512
vt 0.226259 0.034512
vt 0.241259 0.034512
vt 0.261259 0.034512
vt 0.286259 0.034512
vt 0.036260 0.410452
vt 0.061260 0.410452
vt 0.091260 0.410452
vt 0.106259 0.410452
vt 0.121259 0.410452
vt 0.146259 0.410452
vt 0.166259 0.410452
vt 0.181259 0.410452
vt 0.211259 0.410452
vt 0.226259 0.410452
vt 0.241259 0.410452
vt 0.261259 0.410452
vt 0.286259 0.410452
vt 0.655160 0.234284
vt 0.637065 0.139427
vt 0.583865 0.082774
vt 0.529421 0.061218
vt 0.470864 0.061218
vt 0.373733 0.122859
vt 0.348801 0.175843
vt 0.348801 0.253559
vt 0.400545 0.335094
vt 0.451859 0.363303
vt 0.509953 0.370643
vt 0.614044 0.321661
vt 0.348659 0.254019
vt 0.529798 0.705919
vt 0.523914 0.799425
vt 0.514213 0.829283
vt 0.484023 0.884198
vt 0.441125 0.929880
vt 0.415725 0.948334
vt 0.328614 0.982824
vt 0.297466 0.986759
vt 0.234923 0.982824
vt 0.175324 0.963459
vt 0.147812 0.948334
vt 0.099526 0.908389
vt 0.049324 0.829283
vt 0.039623 0.799425
vt 0.033740 0.768585
vt 0.033740 0.705919
vt 0.049324 0.645221
vt 0.062692 0.616814
vt 0.099526 0.566115
vt 0.147812 0.526170
vt 0.234923 0.491680
vt 0.297466 0.487745
vt 0.328614 0.491680
vt 0.359023 0.499488
vt 0.415725 0.526170
vt 0.441125 0.544623
vt 0.484023 0.590306
vt 0.514213 0.645221
vt 0.523915 0.675080
vt 0.479795 0.500000
vt 0.489795 0.500000
vt 0.729795 1.000000
vt 0.499795 0.500000
vt 0.519794 0.500000
vt 0.539794 0.500000
vt 0.549794 0.500000
vt 0.569794 0.500000
vt 0.579794 0.500000
vt 0.589794 0.500000
vt 0.609794 0.500000
vt 0.639794 0.500000
vt 0.659794 0.500000
vt 0.679794 0.500000
vt 0.689794 0.500000
vt 0.709794 0.500000
vt 0.729794 0.500000
vt 0.739794 0.500000
vt 0.749794 0.500000
vt 0.779794 0.500000
vt 0.799794 0.500000
vt 0.809794 0.500000
vt 0.829794 0.500000
vt 0.849794 0.500000
vt 0.859794 0.500000
vt 0.889794 0.500000
vt 0.899794 0.500000
vt 0.919794 0.500000
vt 0.939794 0.500000
vt 0.949794 0.500000
vt 0.979794 0.500000
vt 0.529798 0.705919
vt 0.523914 0.799425
vt 0.500845 0.857690
vt 0.464011 0.908389
vt 0.441125 0.929880
vt 0.359023 0.975016
vt 0.266071 0.986759
vt 0.234923 0.982824
vt 0.204514 0.975016
vt 0.122413 0.929880
vt 0.099526 0.908389
vt 0.062692 0.857691
vt 0.039623 0.799425
vt 0.033740 0.768585
vt 0.033740 0.705919
vt 0.049324 0.645221
vt 0.062692 0.616814
vt 0.099526 0.566115
vt 0.122413 0.544624
vt 0.175324 0.511045
vt 0.234923 0.491680
vt 0.297466 0.487745
vt 0.359023 0.499488
vt 0.388214 0.511045
vt 0.441125 0.544623
vt 0.500845 0.616814
vt 0.523915 0.675080
vt 0.479795 0.500000
vt 0.489795 0.500000
vt 0.729795 1.000000
vt 0.509794 0.500000
vt 0.539794 0.500000
vt 0.559794 0.500000
vt 0.569794 0.500000
vt 0.589794 0.500000
vt 0.609794 0.500000
vt 0.629794 0.500000
vt 0.649794 0.500000
vt 0.659794 0.500000
vt 0.679794 0.500000
vt 0.689794 0.500000
vt 0.709794 0.500000
vt 0.729794 0.500000
vt 0.739794 0.500000
vt 0.759794 0.500000
vt 0.779794 0.500000
vt 0.789794 0.500000
vt 0.819794 0.500000
vt 0.829794 0.500000
vt 0.839794 0.500000
vt 0.869794 0.500000
vt 0.899794 0.500000
vt 0.909794 0.500000
vt 0.929794 0.500000
vt 0.949794 0.500000
vt 0.979794 0.500000
vn 0.992115 0.000000 -0.125333
vn 0.684547 0.000000 -0.728969
vn 0.992115 0.000000 -0.125333
vn 0.684547 0.000000 -0.728969
vn 0.248690 0.000000 -0.968583
vn 0.248690 0.000000 -0.968583
vn -0.309017 0.000000 -0.951056
vn -0.309017 0.000000 -0.951056
vn -0.728969 0.000000 -0.684547
vn -0.728969 0.000000 -0.684547
vn -0.951057 0.000000 -0.309017
vn -0.951057 0.000000 -0.309017
vn -0.982287 0.000000 0.187382
vn -0.982287 0.000000 0.187382
vn -0.684547 0.000000 0.728969
vn -0.684547 0.000000 0.728969
vn -0.368124 0.000000 0.929777
vn -0.368124 0.000000 0.929777
vn 0.187382 0.000000 0.982287
vn 0.187382 0.000000 0.982287
vn 0.587786 0.000000 0.809017
vn 0.587786 0.000000 0.809017
vn 0.904827 0.000000 0.425780
vn 0.904827 0.000000 0.425780
vn 0.000000 -1.000000 0.000000
vn 0.000000 -1.000000 0.000000
vn 0.000000 -1.000000 0.000000
vn 0.000000 -1.000000 0.000000
vn 0.000000 -1.000000 0.000000
vn 0.000000 -1.000000 0.000000
vn 0.000000 -1.000000 0.000000
vn 0.000000 -1.000000 0.000000
vn 0.000000 -1.000000 0.000000
vn 0.000000 -1.000000 0.000000
vn 0.000000 -1.000000 0.000000
vn 0.000000 -1.000000 0.000000
vn 0.000000 1.000000 0.000000
vn 0.000000 1.000000 0.000000
vn 0.000000 1.000000 0.000000
vn 0.000000 1.000000 0.000000
vn 0.000000 1.000000 0.000000
vn 0.000000 1.000000 0.000000
vn 0.000000 1.000000 0.000000
vn 0.000000 1.000000 0.000000
vn 0.000000 1.000000 0.000000
vn 0.000000 1.000000 0.000000
vn 0.000000 1.000000 0.000000
vn 0.000000 1.000000 0.000000
vn 0.000000 -1.000000 0.000000
vn 0.000000 -1.000000 0.000000
vn 0.000000 -1.000000 -0.000000
vn 0.000000 -1.000000 0.000000
vn 0.000000 -1.000000 0.000000
vn 0.000000 -1.000000 -0.000001
vn 0.000000 -1.000000 0.000000
vn 0.000000 -1.000000 -0.000001
vn 0.000000 -1.000000 0.000000
vn 0.000000 -1.000000 -0.000000
vn 0.000000 -1.000000 -0.000001
vn 0.000000 -1.000000 -0.000000
vn 0.000000 -1.000000 0.000000
vn 0.000000 -1.000000 0.000000
vn 0.000000 -1.000000 -0.000001
vn 0.000000 -1.000000 -0.000001
vn 0.000000 -1.000000 0.000000
vn 0.000000 -1.000000 -0.000000
vn 0.000000 -1.000000 -0.000001
vn 0.000000 -1.000000 0.000000
vn 0.000000 -1.000000 0.000001
vn 0.000000 -1.000000 -0.000000
vn 0.000000 -1.000000 0.000001
vn 0.000000 -1.000000 0.000000
vn 0.000000 -1.000000 -0.000000
vn 0.000000 -1.000000 -0.000001
vn 0.000000 -1.000000 0.000000
vn 0.000000 -1.000000 -0.000002
vn 0.000000 -1.000000 0.000003
vn 0.907559 0.419921 -0.001503
vn 0.877846 0.422592 -0.225393
vn -0.017006 0.998928 0.043050
vn 0.820626 0.421923 -0.385428
vn 0.733228 0.422592 -0.532722
vn 0.620151 0.421923 -0.661358
vn 0.437351 0.421923 -0.794170
vn 0.333140 0.421922 -0.843208
vn 0.169827 0.422592 -0.890267
vn 0.000660 0.421922 -0.906632
vn -0.224301 0.421935 -0.878442
vn -0.437827 0.421935 -0.793901
vn -0.660679 0.422592 -0.620419
vn -0.765848 0.421923 -0.485240
vn -0.862054 0.421923 -0.280792
vn -0.899173 0.422592 -0.113592
vn -0.904801 0.421922 0.057587
vn -0.877846 0.422592 0.225393
vn -0.796025 0.419921 0.435902
vn -0.697798 0.421935 0.578834
vn -0.532371 0.421922 0.733868
vn -0.334367 0.421922 0.842722
vn -0.169827 0.422592 0.890267
vn 0.000660 0.421922 0.906632
vn 0.279021 0.419921 0.863605
vn 0.387782 0.419921 0.820544
vn 0.620151 0.421922 0.661358
vn 0.733229 0.422592 0.532722
vn 0.820626 0.421922 0.385428
vn 0.900214 0.419921 0.115242
vn 0.000000 -1.000000 -0.000003
vn 0.000000 -1.000000 -0.000000
vn 0.000000 -1.000000 -0.000003
vn 0.000000 -1.000000 0.000004
vn 0.000000 -1.000000 -0.000001
vn 0.000000 -1.000000 -0.000000
vn 0.000000 -1.000000 -0.000000
vn 0.000000 -1.000000 0.000001
vn 0.000000 -1.000000 -0.000000
vn 0.000000 -1.000000 -0.000000
vn 0.000000 -1.000000 0.000000
vn 0.000000 -1.000000 0.000000
vn 0.000000 -1.000000 0.000000
vn 0.000000 -1.000000 0.000000
vn 0.000000 -1.000000 -0.000001
vn 0.000000 -1.000000 -0.000000
vn 0.000000 -1.000000 0.000000
vn 0.000000 -1.000000 0.000001
vn 0.000000 -1.000000 0.000001
vn 0.000000 -1.000000 -0.000001
vn 0.000000 -1.000000 -0.000003
vn 0.000000 -1.000000 -0.000000
vn 0.000000 -1.000000 -0.000003
vn 0.000000 -1.000000 0.000000
vn 0.000000 -1.000000 0.000004
vn 0.000000 -1.000000 0.000002
vn 0.000000 -1.000000 0.000000
vn 0.929752 0.368185 -0.001342
vn 0.883731 0.370034 -0.286521
vn 0.169084 0.978322 0.119570
vn 0.784969 0.370044 -0.496882
vn 0.635168 0.370044 -0.677959
vn 0.447040 0.370034 -0.814390
vn 0.231609 0.370034 -0.899684
vn 0.058318 0.370652 -0.926939
vn -0.174035 0.370652 -0.912321
vn -0.395452 0.370652 -0.840378
vn -0.546541 0.370034 -0.751244
vn -0.715444 0.370034 -0.592634
vn -0.784713 0.370034 -0.497294
vn -0.883367 0.370034 -0.287643
vn -0.921448 0.370652 -0.116406
vn -0.927148 0.370034 0.058923
vn -0.883731 0.370034 0.286521
vn -0.813889 0.370652 0.447440
vn -0.715444 0.370034 0.592634
vn -0.499321 0.368185 0.784295
vn -0.394652 0.368185 0.841837
vn -0.174034 0.370652 0.912321
vn 0.057038 0.368185 0.928001
vn 0.287007 0.370652 0.883314
vn 0.499321 0.368185 0.784295
vn 0.715445 0.370034 0.592633
vn 0.813889 0.370652 0.447439
vn 0.912356 0.370044 0.175139
s 1
g pCylinder2
usemtl lambert2SG
f 11/12/1 1/13/2 23/25/3
f 23/25/3 1/13/2 12/26/4
f 1/13/2 2/14/5 12/26/4
f 12/26/4 2/14/5 13/27/6
f 2/14/5 3/15/7 13/27/6
f 13/27/6 3/15/7 14/28/8
f 3/15/7 4/16/9 14/28/8
f 14/28/8 4/16/9 15/29/10
f 4/16/9 5/17/11 15/29/10
f 15/29/10 5/17/11 16/30/12
f 5/17/11 24/18/13 16/30/12
f 16/30/12 24/18/13 17/31/14
f 24/18/13 6/19/15 17/31/14
f 17/31/14 6/19/15 18/32/16
f 6/19/15 7/20/17 18/32/16
f 18/32/16 7/20/17 19/33/18
f 7/20/17 8/21/19 19/33/18
f 19/33/18 8/21/19 20/34/20
f 8/21/19 9/22/21 20/34/20
f 20/34/20 9/22/21 21/35/22
f 9/22/21 10/23/23 21/35/22
f 21/35/22 10/23/23 22/36/24
f 10/23/23 11/24/1 22/36/24
f 22/36/24 11/24/1 23/37/3
s 2
f 1/1/25 11/11/26 24/50/27
f 2/2/28 1/1/25 24/50/27
f 3/3/29 2/2/28 24/50/27
f 4/4/30 3/3/29 24/50/27
f 5/5/31 4/4/30 24/50/27
f 7/7/32 6/6/33 24/50/27
f 8/8/34 7/7/32 24/50/27
f 9/9/35 8/8/34 24/50/27
f 10/10/36 9/9/35 24/50/27
f 11/11/26 10/10/36 24/50/27
s 4
f 23/38/37 12/49/38 17/44/39
f 12/49/38 13/48/40 17/44/39
f 13/48/40 14/47/41 17/44/39
f 14/47/41 15/46/42 17/44/39
f 15/46/42 16/45/43 17/44/39
f 18/43/44 19/42/45 17/44/39
f 19/42/45 20/41/46 17/44/39
f 20/41/46 21/40/47 17/44/39
f 21/40/47 22/39/48 17/44/39
f 22/39/48 23/38/37 17/44/39
s 6
f 53/51/49 52/52/50 25/79/51
f 52/52/50 51/53/52 25/79/51
f 51/53/52 50/54/53 25/79/51
f 50/54/53 49/55/54 25/79/51
f 49/55/54 48/56/55 25/79/51
f 48/56/55 47/57/56 25/79/51
f 47/57/56 46/58/57 25/79/51
f 46/58/57 45/59/58 25/79/51
f 45/59/58 44/60/59 25/79/51
f 44/60/59 43/61/60 25/79/51
f 43/61/60 42/62/61 25/79/51
f 42/62/61 41/63/62 25/79/51
f 41/63/62 40/64/63 25/79/51
f 40/64/63 39/65/64 25/79/51
f 39/65/64 38/66/65 25/79/51
f 38/66/65 37/67/66 25/79/51
f 37/67/66 36/68/67 25/79/51
f 36/68/67 35/69/68 25/79/51
f 35/69/68 34/70/69 25/79/51
f 34/70/69 33/71/70 25/79/51
f 33/71/70 32/72/71 25/79/51
f 32/72/71 31/73/72 25/79/51
f 31/73/72 30/74/73 25/79/51
f 30/74/73 29/75/74 25/79/51
f 29/75/74 28/76/75 25/79/51
f 25/79/51 28/76/75 26/78/76
f 28/76/75 27/77/77 26/78/76
s 7
f 53/80/78 25/81/79 54/82/80
f 25/81/79 26/83/81 54/82/80
f 26/83/81 27/84/82 54/82/80
f 27/84/82 28/85/83 54/82/80
f 28/85/83 29/86/84 54/82/80
f 29/86/84 30/87/85 54/82/80
f 30/87/85 31/88/86 54/82/80
f 31/88/86 32/89/87 54/82/80
f 32/89/87 33/90/88 54/82/80
f 33/90/88 34/91/89 54/82/80
f 34/91/89 35/92/90 54/82/80
f 35/92/90 36/93/91 54/82/80
f 36/93/91 37/94/92 54/82/80
f 37/94/92 38/95/93 54/82/80
f 38/95/93 39/96/94 54/82/80
f 39/96/94 40/97/95 54/82/80
f 40/97/95 41/98/96 54/82/80
f 41/98/96 42/99/97 54/82/80
f 42/99/97 43/100/98 54/82/80
f 43/100/98 44/101/99 54/82/80
f 44/101/99 45/102/100 54/82/80
f 45/102/100 46/103/101 54/82/80
f 46/103/101 47/104/102 54/82/80
f 47/104/102 48/105/103 54/82/80
f 48/105/103 49/106/104 54/82/80
f 49/106/104 50/107/105 54/82/80
f 50/107/105 51/108/106 54/82/80
f 51/108/106 52/109/107 54/82/80
f 52/109/107 53/110/78 54/82/80
s 8
f 76/116/108 75/117/109 77/115/110
f 77/115/110 75/117/109 78/114/111
f 78/114/111 75/117/109 79/113/112
f 79/113/112 75/117/109 80/112/113
f 80/112/113 75/117/109 81/111/114
f 81/111/114 75/117/109 55/137/115
f 55/137/115 75/117/109 56/136/116
f 56/136/116 75/117/109 57/135/117
f 57/135/117 75/117/109 58/134/118
f 75/117/109 74/118/119 58/134/118
f 74/118/119 73/119/120 58/134/118
f 73/119/120 72/120/121 58/134/118
f 72/120/121 71/121/122 58/134/118
f 71/121/122 70/122/123 58/134/118
f 70/122/123 69/123/124 58/134/118
f 69/123/124 68/124/125 58/134/118
f 68/124/125 67/125/126 58/134/118
f 67/125/126 66/126/127 58/134/118
f 66/126/127 65/127/128 58/134/118
f 65/127/128 64/128/129 58/134/118
f 64/128/129 63/129/130 58/134/118
f 63/129/130 62/130/131 58/134/118
f 62/130/131 61/131/132 58/134/118
f 58/134/118 61/131/132 59/133/133
f 61/131/132 60/132/134 59/133/133
s 9
f 81/138/135 55/139/136 82/140/137
f 55/139/136 56/141/138 82/140/137
f 56/141/138 57/142/139 82/140/137
f 57/142/139 58/143/140 82/140/137
f 58/143/140 59/144/141 82/140/137
f 59/144/141 60/145/142 82/140/137
f 60/145/142 61/146/143 82/140/137
f 61/146/143 62/147/144 82/140/137
f 62/147/144 63/148/145 82/140/137
f 63/148/145 64/149/146 82/140/137
f 64/149/146 65/150/147 82/140/137
f 65/150/147 66/151/148 82/140/137
f 66/151/148 67/152/149 82/140/137
f 67/152/149 68/153/150 82/140/137
f 68/153/150 69/154/151 82/140/137
f 69/154/151 70/155/152 82/140/137
f 70/155/152 71/156/153 82/140/137
f 71/156/153 72/157/154 82/140/137
f 72/157/154 73/158/155 82/140/137
f 73/158/155 74/159/156 82/140/137
f 74/159/156 75/160/157 82/140/137
f 75/160/157 76/161/158 82/140/137
f 76/161/158 77/162/159 82/140/137
f 77/162/159 78/163/160 82/140/137
f 78/163/160 79/164/161 82/140/137
f 79/164/161 80/165/162 82/140/137
f 80/165/162 81/166/135 82/140/137
